<svg width="64" height="64" viewBox="0 0 64 64" fill="none" xmlns="http://www.w3.org/2000/svg">
  <path d="M22.0574 5.71727C13.8079 5.71727 7.10345 12.4287 7.10342 20.6782C7.10345 28.8829 13.3081 35.6322 22.4405 35.6322C22.5676 35.633 22.6936 35.6081 22.8109 35.5591C22.9282 35.51 23.0344 35.4377 23.1231 35.3465L36.7467 21.3328C36.9163 21.1571 37.0112 20.9224 37.0114 20.6781C37.0113 12.4286 30.3069 5.71716 22.0574 5.71716V5.71727Z" fill="#FFD800"/>
  <path d="M22.0574 9.35314C15.8154 9.35314 10.7322 14.4363 10.7322 20.6783C10.7322 26.9058 15.683 31.9965 21.925 31.9965C22.1727 31.9963 22.4104 31.8987 22.5867 31.7248L33.097 21.3469C33.1864 21.2598 33.2577 21.1559 33.3068 21.0412C33.3558 20.9264 33.3815 20.803 33.3826 20.6782C33.3825 14.4362 28.2994 9.35303 22.0574 9.35303V9.35314Z" fill="#FFF79C"/>
  <path d="M43.4192 2.75013C43.2068 2.74977 43.0005 2.82109 42.8336 2.95255C42.6668 3.08401 42.5492 3.26789 42.4998 3.47449C41.1806 9.1543 39.4233 14.7564 37.7845 20.4135C37.744 20.5539 37.7367 20.7018 37.7631 20.8456C37.7896 20.9893 37.849 21.1249 37.9368 21.2417C38.0246 21.3585 38.1383 21.4534 38.269 21.5188C38.3997 21.5842 38.5438 21.6183 38.6899 21.6185H42.8063C43.0138 21.6188 43.2156 21.5508 43.3806 21.4249C43.5455 21.2989 43.6644 21.1222 43.7187 20.922C44.8766 16.6907 45.8839 12.4557 47.2987 8.40575C49.5226 8.40557 54.2124 8.40568 55.9563 8.40575C56.2054 8.40487 56.4441 8.30558 56.6202 8.12944C56.7964 7.95329 56.8957 7.71458 56.8966 7.46547V3.69041C56.8957 3.4413 56.7964 3.20259 56.6202 3.02644C56.4441 2.8503 56.2054 2.75101 55.9563 2.75013C53.0115 2.75013 46.3641 2.74984 43.4192 2.75013Z" fill="#F9F9F9"/>
  <path d="M55.0086 2.75098V5.57792C55.0076 5.82687 54.9083 6.0653 54.7323 6.24134C54.5562 6.41738 54.3177 6.51677 54.0688 6.51777C52.3249 6.51769 47.635 6.51759 45.4111 6.51777C43.9963 10.5677 42.9903 14.803 41.8323 19.0343C41.778 19.2345 41.6592 19.4113 41.4943 19.5372C41.3294 19.6631 41.1276 19.7312 40.9201 19.7309H37.9827C37.9163 19.9588 37.8496 20.1848 37.7836 20.4127C37.7431 20.5533 37.7357 20.7014 37.7622 20.8452C37.7887 20.9891 37.8483 21.1247 37.9362 21.2416C38.0241 21.3584 38.138 21.4533 38.2689 21.5186C38.3998 21.584 38.544 21.618 38.6903 21.618H42.8072C43.0147 21.6183 43.2165 21.5502 43.3814 21.4243C43.5463 21.2984 43.6651 21.1216 43.7194 20.9214C44.8774 16.6901 45.8834 12.4566 47.2982 8.40671C49.522 8.40653 54.212 8.40664 55.9558 8.40671C56.2051 8.40571 56.4439 8.30607 56.62 8.12963C56.7961 7.95319 56.8952 7.71429 56.8957 7.46501V3.69082C56.8947 3.44187 56.7954 3.20344 56.6193 3.0274C56.4433 2.85136 56.2048 2.75197 55.9558 2.75098C55.7334 2.75098 55.2702 2.75098 55.0086 2.75098V2.75098Z" fill="#ECECEC"/>
  <path d="M22.0574 15.9559C19.4631 15.9559 17.342 18.0839 17.342 20.6782C17.342 23.2725 19.4631 25.3936 22.0574 25.3936C22.1817 25.3935 22.3047 25.3688 22.4195 25.321C22.5342 25.2732 22.6384 25.2033 22.726 25.1151L26.5011 21.34C26.6749 21.1637 26.7725 20.926 26.7727 20.6783C26.7727 18.084 24.6517 15.956 22.0574 15.956V15.9559Z" fill="#FFD800"/>
  <path d="M22.0569 5.71802C21.7384 5.71802 21.4269 5.74654 21.1133 5.76579C28.9223 6.25653 35.1244 12.747 35.1244 20.6781C35.1239 20.9223 35.0288 21.1567 34.859 21.3323L21.2368 35.347C21.1458 35.4397 21.0366 35.5125 20.9161 35.561C21.4153 35.6034 21.9214 35.633 22.4402 35.633C22.5675 35.634 22.6937 35.6092 22.8112 35.5601C22.9287 35.511 23.035 35.4386 23.1238 35.3474L36.7461 21.3326C36.9159 21.1571 37.011 20.9226 37.0115 20.6784C37.0115 12.4289 30.3063 5.71824 22.0569 5.71824V5.71802Z" fill="#FCA311"/>
  <path d="M21.9813 17.7666C20.4647 17.7702 19.0879 19.1469 19.0825 20.6635C19.0825 20.666 19.0825 20.6685 19.0825 20.6709V30.1099C19.0825 31.8891 19.2838 33.6572 19.6409 35.3952C20.5412 35.5412 21.4699 35.6329 22.4402 35.6329C22.5675 35.6339 22.6937 35.6091 22.8112 35.56C22.9287 35.5109 23.0351 35.4386 23.1239 35.3473L36.7461 21.3325C36.9159 21.157 37.011 20.9225 37.0115 20.6783C37.0115 19.6817 36.9088 18.7092 36.7222 17.7666H21.9887C21.9862 17.7666 21.9837 17.7666 21.9811 17.7666H21.9813Z" fill="#FCA311"/>
  <path d="M21.9813 17.7666C20.4647 17.7702 19.0879 19.1469 19.0825 20.6635C19.0825 20.666 19.0825 20.6685 19.0825 20.6709V30.1099C19.0825 30.6184 19.1023 31.1259 19.1341 31.6321C20.026 31.862 20.9566 31.997 21.9242 31.997C22.1726 31.997 22.411 31.899 22.5876 31.7243L33.0973 21.3472C33.1868 21.2602 33.2581 21.1562 33.3072 21.0414C33.3562 20.9266 33.382 20.8031 33.3829 20.6783C33.3829 19.6704 33.2371 18.6975 32.9886 17.7666H21.9887C21.9862 17.7666 21.9837 17.7666 21.9811 17.7666H21.9813Z" fill="#FEC872"/>
  <path d="M21.9813 17.7666C20.4647 17.7702 19.0879 19.1469 19.0825 20.6636C19.0825 20.666 19.0825 20.6685 19.0825 20.6709V24.3013C19.8975 24.9723 20.9247 25.3941 22.0569 25.3941C22.1812 25.3941 22.3043 25.3695 22.4191 25.3217C22.5339 25.274 22.6381 25.204 22.7258 25.1158L26.5018 21.3399C26.6754 21.1634 26.7726 20.9258 26.7727 20.6783C26.7727 19.5767 26.3757 18.5728 25.737 17.7666H21.9887C21.9862 17.7666 21.9837 17.7666 21.9811 17.7666L21.9813 17.7666Z" fill="#FCA311"/>
  <path d="M21.9877 19.7309C21.7386 19.7318 21.5 19.8312 21.3238 20.0073C21.1477 20.1835 21.0483 20.4221 21.0474 20.6712V30.1088C21.0474 32.71 21.4647 35.2957 22.2872 37.7634L23.6733 41.9216C24.4317 44.1968 24.8225 46.5788 24.8225 48.9772V58.3452C24.8225 59.9351 26.13 61.2496 27.72 61.2496H42.7436C44.3336 61.2496 45.648 59.9351 45.648 58.3452V48.9772C45.648 46.5788 46.0319 44.1968 46.7903 41.9216L48.1763 37.7634C49.0038 35.281 49.3493 32.7043 49.4161 30.1367C49.4186 30.1272 49.421 30.1177 49.4232 30.1082V20.6705C49.4228 20.5466 49.398 20.4239 49.3501 20.3095C49.3023 20.1952 49.2324 20.0915 49.1444 20.0042C49.0564 19.9168 48.9521 19.8476 48.8374 19.8006C48.7228 19.7536 48.5999 19.7298 48.476 19.7302L21.9877 19.7309Z" fill="#E2F0FA"/>
  <path d="M28.2156 25.0362C25.7999 25.2295 23.3949 25.1878 21.082 25.7734C21.0703 25.7768 21.0586 25.7805 21.047 25.7844V30.1098C21.047 32.7109 21.4647 35.2954 22.2872 37.7631L23.6731 41.9224C24.4315 44.1976 24.823 46.5784 24.823 48.9767V57.4538C24.8872 57.4673 24.9527 57.4741 25.0183 57.4741H45.4609C45.524 57.4742 45.587 57.468 45.6489 57.4556V48.9767C45.6489 46.5784 46.0312 44.1976 46.7896 41.9224L48.1773 37.7631C49.0047 35.2806 49.3488 32.705 49.4156 30.1374C49.4185 30.1276 49.4204 30.1178 49.4232 30.1079V25.3995C49.3239 25.3861 49.2232 25.3886 49.1247 25.4068C45.0606 26.2053 40.3448 26.0916 35.5079 25.6016C33.0895 25.3566 30.6316 24.8429 28.2158 25.0362L28.2156 25.0362Z" fill="#FFD800"/>
  <path d="M27.6503 28.2214C26.6212 28.2214 25.7628 29.0798 25.7628 30.109V33.884C25.7628 34.9131 26.6212 35.7716 27.6503 35.7716H31.4254C32.4545 35.7716 33.3129 34.9131 33.3129 33.884V30.109C33.3129 29.0798 32.4545 28.2214 31.4254 28.2214H27.6503Z" fill="#8ED1F7"/>
  <path d="M39.4073 29.9974L36.7397 32.665C36.012 33.3927 36.012 34.6049 36.7397 35.3327L39.4073 38.0003C40.135 38.728 41.3542 38.728 42.0819 38.0003L44.7495 35.3327C45.4772 34.605 45.4772 33.3927 44.7495 32.665L42.0819 29.9974C41.3542 29.2697 40.135 29.2698 39.4073 29.9974Z" fill="#8ED1F7"/>
  <path d="M33.5079 36.8719C32.5139 36.6055 31.4619 37.2153 31.1955 38.2092L30.2204 41.8519C29.9541 42.846 30.5563 43.8982 31.5508 44.1643L35.2004 45.1394C36.1945 45.4058 37.2395 44.8032 37.5059 43.8091L38.4879 40.1594C38.7543 39.1653 38.145 38.1132 37.1507 37.847L33.5079 36.8719Z" fill="#8ED1F7"/>
  <path d="M29.5388 28.2209C30.5679 28.2209 31.4258 29.0806 31.4258 30.1098V33.884C31.4258 34.9131 30.5679 35.7711 29.5388 35.7711H31.4258C32.455 35.7711 33.3129 34.9131 33.3129 33.884V30.1098C33.3129 29.0806 32.4549 28.2209 31.4258 28.2209H29.5388Z" fill="#2BB3CD"/>
  <path d="M40.7451 29.4519C40.4169 29.4519 40.092 29.5408 39.8015 29.7062C39.942 29.7861 40.0755 29.8788 40.1941 29.9976L42.8625 32.666C43.5902 33.3937 43.5902 34.6049 42.8625 35.3326L40.1941 38.001C40.0756 38.1194 39.9419 38.2104 39.8015 38.2902C40.5229 38.701 41.472 38.6101 42.0811 38.001L44.7496 35.3326C45.4772 34.6049 45.4772 33.3937 44.7496 32.666L42.0811 29.9976C41.7173 29.6337 41.2318 29.4521 40.7451 29.4521V29.4519Z" fill="#2BB3CD"/>
  <path d="M33.1341 36.8123C32.7996 36.7945 32.4732 36.8736 32.1814 37.0205L35.2645 37.8479C36.2588 38.1139 36.8669 39.1648 36.6005 40.1589L35.6183 43.8096C35.4753 44.3433 35.1051 44.7567 34.6416 44.9908L35.2 45.1402C36.194 45.4066 37.239 44.8039 37.5054 43.8097L38.4876 40.159C38.754 39.1649 38.1459 38.1143 37.1515 37.8481L33.5082 36.8714C33.384 36.8393 33.2586 36.8193 33.1341 36.8125V36.8123Z" fill="#2BB3CD"/>
  <path d="M21.9886 19.731C21.7394 19.7315 21.5004 19.8305 21.324 20.0066C21.1475 20.1827 21.0479 20.4215 21.047 20.6708V21.6181H46.5887C46.8389 21.6171 47.0793 21.7155 47.2569 21.8918C47.4346 22.068 47.5349 22.3077 47.5359 22.5579V31.995C47.5336 32.0046 47.5311 32.0141 47.5284 32.0235C47.4616 34.5912 47.1175 37.1667 46.29 39.6492L44.9024 43.8085C44.144 46.0838 43.7617 48.4646 43.7617 50.8629V60.2319C43.7617 60.5357 43.7011 60.8234 43.6124 61.0998C44.7828 60.7242 45.6487 59.6311 45.6487 58.3448V48.9758C45.6487 46.5775 46.031 44.1967 46.7894 41.9214L48.1771 37.7622C49.0046 35.2797 49.3487 32.7041 49.4155 30.1364C49.4181 30.127 49.4206 30.1175 49.4229 30.1079V20.6708C49.4219 20.4206 49.3216 20.1809 49.144 20.0047C48.9663 19.8284 48.726 19.73 48.4758 19.731H21.9886Z" fill="#C8DAE5"/>
  <path d="M45.5547 57.4649C45.6178 57.4652 45.6487 48.9771 45.6487 48.9771C45.6487 46.5787 46.031 44.1979 46.7895 41.9227L48.1771 37.7634C49.0046 35.281 49.3487 32.7054 49.4155 30.1378C49.4182 30.1271 49.4205 30.1199 49.423 30.1092V25.4008C49.3705 25.3937 49.3174 25.39 49.2645 25.3936V25.3939C49.2175 25.3952 49.1707 25.4011 49.1245 25.4082C48.6054 25.5102 48.0752 25.5897 47.5359 25.6514V30.1092C47.5336 30.1199 47.5309 30.1271 47.5284 30.1378C47.4616 32.7054 47.1175 35.281 46.29 37.7634L44.9024 41.9227C44.144 44.1979 43.7882 46.5789 43.7617 48.9771L43.6677 57.4649H45.5547Z" fill="#FCA311"/>
  <path d="M43.419 2.75098C42.9817 2.75023 42.601 3.04987 42.4994 3.47523C41.2334 8.92625 39.5638 14.3058 37.9827 19.7309H36.9636C36.4715 11.9231 29.9867 5.71798 22.0569 5.71798C13.8074 5.71798 7.10409 12.4286 7.10406 20.6782C7.10409 28.6523 12.9729 35.2333 21.6864 35.5977C21.856 36.3274 22.0497 37.0506 22.2872 37.763L23.673 41.9223C24.4315 44.1976 24.8229 46.5784 24.8229 48.9767V58.3457C24.823 59.9357 26.1299 61.25 27.7199 61.25H42.7427C44.3327 61.25 45.6488 59.9357 45.6488 58.3457V48.9767C45.6488 46.5784 46.0312 44.1976 46.7896 41.9223L48.1772 37.763C49.0047 35.2806 49.3488 32.705 49.4156 30.1374C49.4183 30.1279 49.4208 30.1184 49.4231 30.1088V20.6717C49.4226 20.5478 49.3977 20.4252 49.3498 20.3109C49.302 20.1966 49.232 20.0929 49.1441 20.0056C49.0561 19.9183 48.9518 19.8492 48.8371 19.8022C48.7224 19.7552 48.5996 19.7314 48.4757 19.7319H44.0381C45.0659 15.8998 46.0165 12.0763 47.2981 8.40758C49.522 8.4074 54.2119 8.40751 55.9558 8.40758C56.4743 8.40573 56.8938 7.98443 56.8956 7.46589V3.6918C56.8939 3.17326 56.4743 2.75378 55.9558 2.75196C53.011 2.75196 46.3639 2.75167 43.419 2.75196L43.419 2.75098ZM45.5788 4.63807C46.7516 4.63804 47.979 4.63807 49.3529 4.63807V6.51777C48.5213 6.51777 47.5363 6.51773 46.9904 6.51777L45.5788 4.63807ZM51.2419 4.63807C52.5869 4.63811 53.9682 4.63807 55.0086 4.63807V6.51777C53.9789 6.51777 52.6865 6.5178 51.2419 6.51777V4.63807ZM43.9 5.54288L45.5143 7.69345C45.3207 8.24505 45.1343 8.79864 44.956 9.35385H42.9196C43.2617 8.08927 43.5864 6.81801 43.9 5.54288ZM22.0569 7.60497C28.9666 7.60497 34.5979 12.9467 35.0839 19.7309H33.335C32.8506 13.9311 27.9791 9.35385 22.0569 9.35385C15.8149 9.35385 10.7326 14.4361 10.7326 20.6782C10.7326 26.6352 15.2655 31.5405 21.1225 31.9563C21.1669 32.5382 21.2373 33.1173 21.3234 33.6941C13.7507 33.1908 8.98379 27.6153 8.98377 20.6782C8.98379 13.4485 14.8272 7.60497 22.0569 7.60497V7.60497ZM42.3962 11.2409H44.381C43.5456 14.074 42.833 16.9231 42.0774 19.7309H39.9453C40.7683 16.9104 41.6012 14.0855 42.3962 11.2409V11.2409ZM21.117 11.287V16.0506C20.5135 16.1744 19.9534 16.4174 19.4566 16.7491L16.0308 13.4081C17.4379 12.2412 19.1919 11.4765 21.117 11.287V11.287ZM22.9985 11.287C24.9552 11.4796 26.7306 12.2695 28.1493 13.4689L24.6847 16.7638C24.1825 16.424 23.6112 16.1783 22.9985 16.0525V11.287ZM14.7113 14.7496L18.1279 18.0852C17.8014 18.5786 17.5616 19.1334 17.4387 19.7308H12.6676C12.854 17.8523 13.5903 16.1382 14.7113 14.7496ZM29.4614 14.827C30.5486 16.2021 31.2649 17.886 31.4479 19.7308H26.6769C26.5562 19.1448 26.3212 18.601 26.0042 18.1147L29.4614 14.827ZM22.0569 17.8438C23.2968 17.8438 24.3279 18.6297 24.7142 19.7309H21.9868C21.7379 19.7319 21.4994 19.8312 21.3234 20.0072C21.1473 20.1833 21.048 20.4218 21.047 20.6708V23.3152C19.9809 22.9119 19.2299 21.8944 19.2299 20.6782C19.2299 19.1037 20.4824 17.8438 22.0569 17.8438V17.8438ZM12.6657 21.618H17.4369C17.5536 22.1895 17.7832 22.7184 18.0874 23.1954L14.5141 26.4093C13.5006 25.0559 12.8365 23.4168 12.6657 21.618V21.618ZM22.9359 21.618H47.5359V25.5266C43.6862 26.1291 39.6425 25.6511 35.4727 25.1911C31.3851 24.7402 27.1745 24.3421 22.9359 25.1875V21.618ZM19.3958 24.561C19.8875 24.8997 20.4464 25.1452 21.047 25.2778V30.0637C19.0258 29.8779 17.216 29.0559 15.7931 27.7988L19.3958 24.561ZM28.6984 26.577C30.865 26.602 33.0582 26.8213 35.27 27.0653C39.324 27.5125 43.4359 28.0285 47.5359 27.4376V30.0876C47.4727 32.5178 47.1395 34.9037 46.386 37.1641L45.0002 41.3289C44.1776 43.7966 43.76 46.3756 43.76 48.9767V55.587H26.7026V48.9767C26.7026 46.3756 26.285 43.7966 25.4624 41.3289L24.0766 37.1641C23.3182 34.8889 22.9359 32.5081 22.9359 30.1097V27.1169C24.8318 26.7039 26.7536 26.5544 28.6984 26.577V26.577ZM27.6499 28.2209C26.6208 28.2209 25.7628 29.0806 25.7628 30.1097V33.8839C25.7628 34.913 26.6207 35.771 27.6499 35.771H31.4258C32.455 35.771 33.3129 34.913 33.3129 33.8839V30.1097C33.3129 29.0806 32.4549 28.2209 31.4258 28.2209H27.6499ZM40.7451 29.4518C40.2583 29.4519 39.771 29.6333 39.4072 29.9973L36.7406 32.6658C36.0129 33.3935 36.0129 34.6046 36.7406 35.3323L39.4072 38.0008C40.1349 38.7285 41.3534 38.7285 42.0811 38.0008L44.7496 35.3323C45.4772 34.6046 45.4772 33.3935 44.7496 32.6658L42.0811 29.9973C41.7173 29.6334 41.2318 29.4518 40.7451 29.4518ZM27.6499 30.1097H31.4258V33.8839H27.6499V30.1097ZM40.7451 31.3278L43.4116 33.9945L40.7451 36.6703L38.0766 33.9945L40.7451 31.3278ZM33.1341 36.8122C32.2632 36.764 31.4286 37.3394 31.1955 38.209L30.2206 41.8523C29.9543 42.8463 30.5567 43.8989 31.5512 44.1651L35.2 45.14C36.194 45.4064 37.239 44.8033 37.5054 43.8094L38.4876 40.1588C38.754 39.1647 38.1459 38.114 37.1515 37.8478L33.5082 36.8712C33.384 36.8391 33.2586 36.8191 33.1341 36.8123V36.8122ZM33.0125 38.6974L36.6632 39.6722L35.6883 43.321L32.0377 42.3388L33.0125 38.6974ZM26.7026 57.474H43.76V58.3457C43.7599 58.9159 43.3129 59.363 42.7427 59.363H27.7199C27.1497 59.363 26.7027 58.9159 26.7026 58.3457V57.474Z" fill="black"/>
</svg>
