<svg viewBox="0 0 45 45" fill="none" xmlns="http://www.w3.org/2000/svg">
  <path d="M15.5091 4.01997C9.70869 4.01997 4.99462 8.73892 4.9946 14.5394C4.99462 20.3083 9.35724 25.0539 15.7785 25.0539C15.8679 25.0545 15.9565 25.037 16.0389 25.0025C16.1214 24.968 16.1961 24.9171 16.2584 24.853L25.8375 14.9997C25.9568 14.8761 26.0235 14.7111 26.0236 14.5393C26.0236 8.73884 21.3095 4.0199 15.5091 4.0199V4.01997Z" fill="#FFD800"/>
  <path d="M15.5091 6.57637C11.1202 6.57637 7.5461 10.1505 7.54608 14.5394C7.5461 18.9181 11.0271 22.4975 15.4161 22.4975C15.5902 22.4973 15.7573 22.4287 15.8813 22.3064L23.2713 15.0095C23.3342 14.9483 23.3844 14.8752 23.4188 14.7945C23.4533 14.7138 23.4714 14.6271 23.4721 14.5393C23.4721 10.1504 19.898 6.57629 15.5091 6.57629V6.57637Z" fill="#FFF79C"/>
  <path d="M30.5291 1.93368C30.3798 1.93343 30.2347 1.98358 30.1174 2.07601C30.0001 2.16844 29.9174 2.29774 29.8827 2.443C28.9551 6.43662 27.7195 10.3756 26.5672 14.3532C26.5388 14.452 26.5336 14.556 26.5522 14.657C26.5708 14.7581 26.6126 14.8534 26.6743 14.9356C26.736 15.0177 26.816 15.0844 26.9079 15.1304C26.9998 15.1764 27.1011 15.2003 27.2039 15.2005H30.0982C30.2441 15.2007 30.386 15.1529 30.502 15.0644C30.6179 14.9758 30.7015 14.8516 30.7397 14.7108C31.5539 11.7356 32.2621 8.7579 33.2569 5.91029C34.8206 5.91017 38.1181 5.91024 39.3443 5.91029C39.5194 5.90967 39.6872 5.83986 39.8111 5.71601C39.9349 5.59216 40.0048 5.42431 40.0054 5.24916V2.59482C40.0048 2.41967 39.9349 2.25182 39.8111 2.12797C39.6872 2.00412 39.5194 1.9343 39.3443 1.93368C37.2737 1.93368 32.5998 1.93348 30.5291 1.93368Z" fill="#F9F9F9"/>
  <path d="M38.6779 1.93433V3.92202C38.6772 4.09707 38.6074 4.26471 38.4836 4.38849C38.3598 4.51227 38.1922 4.58215 38.0171 4.58285C36.7909 4.5828 33.4934 4.58272 31.9297 4.58285C30.9349 7.43045 30.2276 10.4084 29.4134 13.3835C29.3752 13.5243 29.2916 13.6486 29.1757 13.7371C29.0597 13.8257 28.9178 13.8736 28.772 13.8733H26.7066C26.6599 14.0336 26.613 14.1925 26.5666 14.3527C26.5381 14.4516 26.5329 14.5557 26.5516 14.6568C26.5702 14.758 26.6121 14.8533 26.6739 14.9355C26.7357 15.0177 26.8158 15.0844 26.9078 15.1303C26.9998 15.1763 27.1013 15.2002 27.2041 15.2002H30.0988C30.2447 15.2004 30.3866 15.1525 30.5025 15.064C30.6185 14.9755 30.702 14.8512 30.7402 14.7104C31.5544 11.7353 32.2618 8.75862 33.2566 5.91101C34.8202 5.91089 38.1178 5.91096 39.344 5.91101C39.5192 5.91031 39.6871 5.84025 39.8109 5.71619C39.9347 5.59213 40.0044 5.42416 40.0048 5.24888V2.59516C40.0041 2.42011 39.9342 2.25247 39.8105 2.12869C39.6867 2.00491 39.519 1.93503 39.344 1.93433C39.1875 1.93433 38.8619 1.93433 38.6779 1.93433V1.93433Z" fill="#ECECEC"/>
  <path d="M15.5091 11.219C13.685 11.219 12.1936 12.7152 12.1936 14.5394C12.1936 16.3635 13.685 17.8548 15.5091 17.8548C15.5965 17.8548 15.683 17.8374 15.7637 17.8038C15.8444 17.7702 15.9176 17.721 15.9793 17.659L18.6336 15.0047C18.7558 14.8807 18.8244 14.7136 18.8246 14.5394C18.8246 12.7153 17.3332 11.2191 15.5091 11.2191V11.219Z" fill="#FFD800"/>
  <path d="M15.5087 4.02051C15.2848 4.02051 15.0658 4.04056 14.8453 4.0541C20.336 4.39915 24.6968 8.96275 24.6969 14.5393C24.6965 14.711 24.6296 14.8759 24.5103 14.9993L14.9321 24.8534C14.8681 24.9185 14.7914 24.9698 14.7066 25.0039C15.0577 25.0337 15.4135 25.0545 15.7782 25.0545C15.8678 25.0552 15.9565 25.0378 16.0391 25.0032C16.1218 24.9687 16.1965 24.9178 16.2589 24.8536L25.8371 14.9995C25.9565 14.8761 26.0234 14.7112 26.0237 14.5395C26.0237 8.73907 21.3092 4.02066 15.5087 4.02066V4.02051Z" fill="#FCA311"/>
  <path d="M15.4556 12.4921C14.3892 12.4946 13.4212 13.4626 13.4174 14.529C13.4174 14.5307 13.4174 14.5324 13.4174 14.5342V21.171C13.4174 22.4219 13.5589 23.6651 13.81 24.8872C14.443 24.9898 15.096 25.0543 15.7783 25.0543C15.8678 25.055 15.9565 25.0376 16.0392 25.0031C16.1218 24.9685 16.1965 24.9177 16.259 24.8535L25.8371 14.9993C25.9565 14.8759 26.0234 14.711 26.0237 14.5393C26.0237 13.8386 25.9515 13.1548 25.8203 12.4921H15.4608C15.459 12.4921 15.4573 12.4921 15.4555 12.4921H15.4556Z" fill="#FCA311"/>
  <path d="M15.4556 12.4921C14.3892 12.4946 13.4212 13.4626 13.4174 14.529C13.4174 14.5307 13.4174 14.5324 13.4174 14.5342V21.171C13.4174 21.5285 13.4313 21.8853 13.4537 22.2413C14.0808 22.4029 14.7351 22.4978 15.4154 22.4978C15.5901 22.4978 15.7577 22.4289 15.8819 22.306L23.2715 15.0097C23.3345 14.9485 23.3846 14.8754 23.4191 14.7947C23.4536 14.7139 23.4717 14.6271 23.4724 14.5393C23.4724 13.8307 23.3699 13.1466 23.1951 12.4921H15.4608C15.459 12.4921 15.4573 12.4921 15.4555 12.4921H15.4556Z" fill="#FEC872"/>
  <path d="M15.4556 12.4921C14.3892 12.4946 13.4212 13.4626 13.4174 14.529C13.4174 14.5307 13.4174 14.5324 13.4174 14.5342V17.0868C13.9904 17.5585 14.7127 17.8552 15.5087 17.8552C15.5962 17.8551 15.6827 17.8378 15.7634 17.8043C15.8442 17.7707 15.9175 17.7215 15.9791 17.6595L18.6341 15.0045C18.7561 14.8804 18.8245 14.7134 18.8246 14.5393C18.8246 13.7648 18.5454 13.0589 18.0963 12.4921H15.4608C15.459 12.4921 15.4573 12.4921 15.4555 12.4921L15.4556 12.4921Z" fill="#FCA311"/>
  <path d="M15.4601 13.8733C15.285 13.8739 15.1172 13.9438 14.9933 14.0676C14.8695 14.1915 14.7996 14.3593 14.799 14.5344V21.1703C14.799 22.9992 15.0923 24.8173 15.6707 26.5524L16.6453 29.4761C17.1785 31.0759 17.4533 32.7507 17.4533 34.437V41.0239C17.4533 42.1419 18.3726 43.0661 19.4906 43.0661H30.0541C31.1721 43.0661 32.0962 42.1419 32.0963 41.0239V34.437C32.0963 32.7507 32.3662 31.0759 32.8994 29.4761L33.874 26.5524C34.4558 24.8069 34.6987 22.9952 34.7457 21.1898C34.7475 21.1832 34.7491 21.1765 34.7507 21.1698V14.5339C34.7504 14.4468 34.7329 14.3605 34.6993 14.2801C34.6657 14.1997 34.6165 14.1268 34.5546 14.0654C34.4928 14.004 34.4195 13.9554 34.3388 13.9223C34.2582 13.8893 34.1718 13.8725 34.0847 13.8728L15.4601 13.8733Z" fill="#E2F0FA"/>
  <path d="M19.8391 17.6037C18.1405 17.7395 16.4495 17.7102 14.8233 18.122C14.8151 18.1244 14.8068 18.127 14.7987 18.1297V21.171C14.7987 22.9999 15.0924 24.8171 15.6707 26.5522L16.6451 29.4767C17.1784 31.0765 17.4537 32.7505 17.4537 34.4368V40.3973C17.4988 40.4068 17.5449 40.4116 17.591 40.4115H31.9647C32.0091 40.4116 32.0534 40.4073 32.0969 40.3986V34.4368C32.0969 32.7505 32.3657 31.0765 32.8989 29.4767L33.8746 26.5522C34.4565 24.8068 34.6984 22.9958 34.7454 21.1904C34.7474 21.1836 34.7487 21.1766 34.7507 21.1697V17.8591C34.6809 17.8496 34.61 17.8514 34.5408 17.8643C31.6832 18.4257 28.3675 18.3457 24.9665 18.0012C23.266 17.8289 21.5379 17.4678 19.8393 17.6037L19.8391 17.6037Z" />
  <path d="M19.4416 19.8431C18.718 19.8431 18.1145 20.4467 18.1145 21.1703V23.8246C18.1145 24.5482 18.718 25.1518 19.4416 25.1518H22.096C22.8196 25.1518 23.4231 24.5482 23.4231 23.8246V21.1703C23.4231 20.4467 22.8195 19.8431 22.096 19.8431H19.4416Z" fill="#8ED1F7"/>
  <path d="M27.7083 21.092L25.8326 22.9677C25.3209 23.4793 25.3209 24.3316 25.8326 24.8433L27.7083 26.719C28.2199 27.2307 29.0772 27.2307 29.5888 26.719L31.4645 24.8433C31.9762 24.3317 31.9762 23.4793 31.4645 22.9677L29.5888 21.092C29.0772 20.5803 28.2199 20.5804 27.7083 21.092Z" fill="#8ED1F7"/>
  <path d="M23.5603 25.9256C22.8613 25.7383 22.1217 26.1671 21.9344 26.8659L21.2487 29.4272C21.0615 30.1261 21.4849 30.8659 22.1841 31.0531L24.7503 31.7387C25.4493 31.926 26.184 31.5023 26.3713 30.8033L27.0618 28.2371C27.2491 27.5382 26.8207 26.7984 26.1216 26.6112L23.5603 25.9256Z" fill="#8ED1F7"/>
  <path d="M20.7694 19.8428C21.493 19.8428 22.0963 20.4472 22.0963 21.1709V23.8246C22.0963 24.5482 21.4931 25.1515 20.7694 25.1515H22.0963C22.8199 25.1515 23.4231 24.5482 23.4231 23.8246V21.1709C23.4231 20.4472 22.8199 19.8428 22.0963 19.8428H20.7694Z" fill="#2BB3CD"/>
  <path d="M28.6489 20.7084C28.4182 20.7084 28.1897 20.7709 27.9855 20.8872C28.0842 20.9434 28.1781 21.0086 28.2614 21.092L30.1377 22.9683C30.6493 23.4799 30.6493 24.3316 30.1377 24.8432L28.2614 26.7194C28.1781 26.8027 28.0841 26.8667 27.9855 26.9228C28.4927 27.2116 29.16 27.1477 29.5883 26.7194L31.4645 24.8432C31.9762 24.3316 31.9762 23.4799 31.4645 22.9683L29.5883 21.092C29.3325 20.8362 28.9911 20.7085 28.6489 20.7085V20.7084Z" fill="#2BB3CD"/>
  <path d="M23.2974 25.8836C23.0622 25.871 22.8327 25.9267 22.6275 26.03L24.7953 26.6117C25.4945 26.7988 25.922 27.5377 25.7348 28.2367L25.0441 30.8035C24.9436 31.1788 24.6833 31.4695 24.3574 31.6341L24.75 31.7392C25.4489 31.9265 26.1837 31.5027 26.371 30.8036L27.0616 28.2367C27.2489 27.5378 26.8214 26.7991 26.1222 26.6119L23.5605 25.9251C23.4731 25.9026 23.3849 25.8885 23.2974 25.8837V25.8836Z" />
  <path d="M15.4608 13.8733C15.2855 13.8737 15.1175 13.9433 14.9934 14.0671C14.8694 14.1909 14.7993 14.3589 14.7986 14.5341V15.2002H32.7577C32.9336 15.1995 33.1026 15.2687 33.2275 15.3926C33.3524 15.5165 33.423 15.685 33.4237 15.861V22.4965C33.422 22.5032 33.4203 22.5098 33.4184 22.5165C33.3715 24.3219 33.1295 26.1328 32.5477 27.8783L31.572 30.8028C31.0387 32.4026 30.7699 34.0766 30.7699 35.7629V42.3505C30.7699 42.5641 30.7273 42.7664 30.665 42.9608C31.4879 42.6967 32.0967 41.928 32.0967 41.0236V34.4361C32.0967 32.7497 32.3656 31.0757 32.8988 29.476L33.8745 26.5515C34.4563 24.806 34.6983 22.995 34.7453 21.1896C34.7471 21.183 34.7489 21.1763 34.7505 21.1696V14.5341C34.7498 14.3582 34.6793 14.1897 34.5544 14.0657C34.4295 13.9418 34.2605 13.8726 34.0845 13.8733H15.4608Z" />
  <path d="M32.0307 40.405C32.075 40.4052 32.0968 34.437 32.0968 34.437C32.0968 32.7506 32.3656 31.0766 32.8988 29.4769L33.8745 26.5524C34.4564 24.8069 34.6983 22.996 34.7453 21.1906C34.7471 21.1831 34.7488 21.178 34.7505 21.1705V17.8599C34.7136 17.8549 34.6763 17.8524 34.6391 17.8549V17.8551C34.6061 17.856 34.5732 17.8601 34.5407 17.8651C34.1757 17.9368 33.8029 17.9928 33.4237 18.0361V21.1705C33.4221 21.178 33.4202 21.1831 33.4184 21.1906C33.3715 22.996 33.1295 24.8069 32.5477 26.5524L31.572 29.4769C31.0387 31.0766 30.7886 32.7507 30.7699 34.437L30.7038 40.405H32.0307Z" />
  <path d="M30.5291 1.93445C30.2216 1.93392 29.9539 2.14461 29.8825 2.44369C28.9923 6.27643 27.8183 10.0589 26.7066 13.8735H25.9901C25.6441 8.3836 21.0844 4.02062 15.5088 4.02062C9.70837 4.02062 4.99512 8.73904 4.9951 14.5395C4.99512 20.1463 9.12165 24.7736 15.2483 25.0298C15.3676 25.5428 15.5038 26.0514 15.6707 26.5523L16.6452 29.4768C17.1784 31.0766 17.4537 32.7506 17.4537 34.4369V41.0245C17.4537 42.1425 18.3726 43.0666 19.4906 43.0666H30.0535C31.1715 43.0666 32.0969 42.1425 32.0969 41.0245V34.4369C32.0969 32.7506 32.3657 31.0766 32.899 29.4768L33.8747 26.5523C34.4565 24.8068 34.6984 22.9959 34.7454 21.1905C34.7473 21.1838 34.749 21.1772 34.7507 21.1705V14.535C34.7503 14.4479 34.7328 14.3616 34.6992 14.2812C34.6655 14.2009 34.6163 14.128 34.5545 14.0666C34.4926 14.0052 34.4193 13.9566 34.3386 13.9236C34.258 13.8906 34.1717 13.8738 34.0845 13.8742H30.9644C31.687 11.1797 32.3554 8.49133 33.2566 5.91175C34.8202 5.91162 38.1178 5.9117 39.344 5.91175C39.7086 5.91045 40.0035 5.61422 40.0048 5.24962V2.59597C40.0035 2.23136 39.7086 1.93642 39.344 1.93514C37.2734 1.93514 32.5997 1.93494 30.529 1.93514L30.5291 1.93445ZM32.0477 3.26131C32.8723 3.26129 33.7353 3.26131 34.7013 3.26131V4.58297C34.1166 4.58297 33.424 4.58295 33.0402 4.58297L32.0477 3.26131ZM36.0295 3.26131C36.9752 3.26134 37.9465 3.26131 38.678 3.26131V4.58297C37.954 4.58297 37.0453 4.583 36.0295 4.58297V3.26131ZM30.8673 3.8975L32.0023 5.40962C31.8662 5.79747 31.7351 6.18671 31.6097 6.57709H30.1779C30.4184 5.68794 30.6467 4.79408 30.8673 3.8975ZM15.5088 5.34741C20.3672 5.34741 24.3267 9.10333 24.6684 13.8735H23.4387C23.0981 9.7955 19.6728 6.57709 15.5088 6.57709C11.1199 6.57709 7.54645 10.1506 7.54643 14.5395C7.54644 18.728 10.7336 22.1771 14.8518 22.4695C14.883 22.8786 14.9325 23.2858 14.9931 23.6913C9.66853 23.3374 6.31678 19.4172 6.31677 14.5395C6.31678 9.45613 10.4254 5.34741 15.5088 5.34741V5.34741ZM29.8099 7.90396H31.2054C30.6181 9.89595 30.117 11.8992 29.5858 13.8735H28.0866C28.6652 11.8903 29.2509 9.90405 29.8099 7.90396V7.90396ZM14.8479 7.93633V11.2858C14.4236 11.3728 14.0298 11.5436 13.6805 11.7769L11.2717 9.42771C12.2611 8.60723 13.4943 8.0696 14.8479 7.93633V7.93633ZM16.1709 7.93633C17.5467 8.07173 18.795 8.62716 19.7925 9.47048L17.3565 11.7872C17.0034 11.5483 16.6017 11.3755 16.1709 11.2871V7.93633ZM10.3439 10.371L12.7463 12.7163C12.5167 13.0632 12.3481 13.4533 12.2616 13.8734H8.90696C9.03805 12.5525 9.5557 11.3474 10.3439 10.371ZM20.7151 10.4254C21.4795 11.3923 21.9832 12.5763 22.1119 13.8734H18.7572C18.6724 13.4613 18.5071 13.079 18.2843 12.7371L20.7151 10.4254ZM15.5088 12.5466C16.3806 12.5466 17.1056 13.0992 17.3772 13.8735H15.4596C15.2845 13.8742 15.1168 13.944 14.993 14.0678C14.8693 14.1915 14.7994 14.3592 14.7987 14.5343V16.3937C14.0491 16.1101 13.5211 15.3947 13.5211 14.5395C13.5211 13.4324 14.4017 12.5466 15.5088 12.5466V12.5466ZM8.90566 15.2003H12.2603C12.3424 15.6022 12.5039 15.974 12.7177 16.3094L10.2053 18.5692C9.49268 17.6176 9.02574 16.4651 8.90566 15.2003V15.2003ZM16.1268 15.2003H33.4237V17.9486C30.7169 18.3722 27.8737 18.0361 24.9418 17.7126C22.0677 17.3956 19.1071 17.1157 16.1268 17.7101V15.2003ZM13.6377 17.2696C13.9835 17.5078 14.3764 17.6804 14.7987 17.7736V21.1387C13.3776 21.0081 12.105 20.4301 11.1045 19.5462L13.6377 17.2696ZM20.1786 18.6871C21.702 18.7047 23.2441 18.8589 24.7993 19.0305C27.6498 19.3449 30.5409 19.7077 33.4237 19.2923V21.1555C33.3793 22.8642 33.145 24.5418 32.6152 26.1312L31.6408 29.0595C31.0624 30.7946 30.7688 32.608 30.7688 34.4369V39.0848H18.7754V34.4369C18.7754 32.608 18.4817 30.7946 17.9033 29.0595L16.9289 26.1312C16.3956 24.5314 16.1268 22.8574 16.1268 21.1711V19.0668C17.4599 18.7763 18.8112 18.6712 20.1786 18.6871V18.6871ZM19.4414 19.843C18.7178 19.843 18.1145 20.4474 18.1145 21.1711V23.8248C18.1145 24.5484 18.7178 25.1517 19.4414 25.1517H22.0964C22.82 25.1517 23.4232 24.5484 23.4232 23.8248V21.1711C23.4232 20.4474 22.8199 19.843 22.0964 19.843H19.4414ZM28.6489 20.7085C28.3067 20.7085 27.9641 20.8361 27.7082 21.092L25.8333 22.9683C25.3216 23.48 25.3216 24.3315 25.8333 24.8432L27.7082 26.7195C28.2199 27.2311 29.0767 27.2311 29.5884 26.7195L31.4646 24.8432C31.9762 24.3315 31.9762 23.48 31.4646 22.9683L29.5884 21.092C29.3325 20.8362 28.9912 20.7085 28.6489 20.7085ZM19.4414 21.1711H22.0964V23.8248H19.4414V21.1711ZM28.6489 22.0276L30.5239 23.9025L28.6489 25.7839L26.7727 23.9025L28.6489 22.0276ZM23.2975 25.8837C22.6851 25.8499 22.0983 26.2544 21.9344 26.8659L21.2489 29.4275C21.0617 30.1265 21.4853 30.8666 22.1845 31.0537L24.75 31.7392C25.449 31.9265 26.1837 31.5025 26.371 30.8037L27.0616 28.2368C27.2489 27.5378 26.8214 26.799 26.1222 26.6119L23.5605 25.9252C23.4732 25.9026 23.385 25.8886 23.2975 25.8838V25.8837ZM23.212 27.2093L25.7788 27.8947L25.0934 30.4603L22.5265 29.7697L23.212 27.2093ZM18.7754 40.4116H30.7688V41.0245C30.7688 41.4254 30.4544 41.7397 30.0535 41.7397H19.4906C19.0897 41.7397 18.7754 41.4254 18.7754 41.0245V40.4116Z" fill="black"/>
</svg>
